<svg width="48" height="48" viewBox="0 0 48 48" fill="none" xmlns="http://www.w3.org/2000/svg">
<rect width="48" height="48" rx="8" fill="#E8EBF9"/>
<g clip-path="url(#clip0_1_8454)">
<path d="M24 12C17.376 12 12 17.376 12 24C12 30.624 17.376 36 24 36C30.624 36 36 30.624 36 24C36 17.376 30.624 12 24 12ZM32.952 20.544L29.616 21.924C29.004 20.292 27.72 18.996 26.076 18.396L27.456 15.06C29.976 16.02 31.98 18.024 32.952 20.544ZM24 27.6C22.008 27.6 20.4 25.992 20.4 24C20.4 22.008 22.008 20.4 24 20.4C25.992 20.4 27.6 22.008 27.6 24C27.6 25.992 25.992 27.6 24 27.6ZM20.556 15.048L21.96 18.384C20.304 18.984 18.996 20.292 18.384 21.948L15.048 20.556C16.02 18.024 18.024 16.02 20.556 15.048ZM15.048 27.444L18.384 26.064C18.996 27.72 20.292 29.016 21.948 29.616L20.544 32.952C18.024 31.98 16.02 29.976 15.048 27.444ZM27.456 32.952L26.076 29.616C27.72 29.004 29.016 27.708 29.616 26.052L32.952 27.456C31.98 29.976 29.976 31.98 27.456 32.952Z" fill="#153AC7"/>
</g>
<defs>
<clipPath id="clip0_1_8454">
<rect width="24" height="24" fill="white" transform="translate(12 12)"/>
</clipPath>
</defs>
</svg>
